<svg xmlns="http://www.w3.org/2000/svg" width="22" height="25" fill="none"><g filter="url(#a)"><mask id="b" width="16" height="19" x="3" y="2" fill="#000" maskUnits="userSpaceOnUse"><path fill="#fff" d="M3 2h16v19H3z"/><path fill-rule="evenodd" d="m7.83555 13-.88661-1.3547c-.60539-.925-1.8949-1.2624-2.88127-.7553l.22983-.1182c-.24478.1259-.36216.4396-.26137.7003l1.22727 3.1753c.19456.5034.69146 1.2153 1.10321 1.5729 0 0 2.46894 2.0436 2.46894 2.8097V20h3.99995l1-2 1 2h1v-.97c0-.7661 1.5089-3.1793 1.5089-3.1793.2777-.4691.5092-1.2955.5092-1.8441V9.9718c-.0181-.8933-.7774-1.61726-1.7143-1.61726-.4688 0-.8484.36198-.8484.80887v.32316c0-.8933-.7594-1.61726-1.6963-1.61726-.4688 0-.8484.36198-.8484.80888v.32316c0-.89331-.7594-1.61727-1.6963-1.61727-.4687 0-.8484.36198-.8484.80888v.32316c0-.14356-.0153-.25769-.045-.34813l-.25877-4.16678C9.86274 3.43776 9.38783 3 8.83555 3c-.55614 0-1 .44763-1 .99981V13Zm7.01805-1h1v4h-1v-4Zm-2 0h1v4h-1v-4Zm-2 0h1v4h-1v-4Z" clip-rule="evenodd"/></mask><path fill="#fff" fill-rule="evenodd" d="m7.83555 13-.88661-1.3547c-.60539-.925-1.8949-1.2624-2.88127-.7553l.22983-.1182c-.24478.1259-.36216.4396-.26137.7003l1.22727 3.1753c.19456.5034.69146 1.2153 1.10321 1.5729 0 0 2.46894 2.0436 2.46894 2.8097V20h3.99995l1-2 1 2h1v-.97c0-.7661 1.5089-3.1793 1.5089-3.1793.2777-.4691.5092-1.2955.5092-1.8441V9.9718c-.0181-.8933-.7774-1.61726-1.7143-1.61726-.4688 0-.8484.36198-.8484.80887v.32316c0-.8933-.7594-1.61726-1.6963-1.61726-.4688 0-.8484.36198-.8484.80888v.32316c0-.89331-.7594-1.61727-1.6963-1.61727-.4687 0-.8484.36198-.8484.80888v.32316c0-.14356-.0153-.25769-.045-.34813l-.25877-4.16678C9.86274 3.43776 9.38783 3 8.83555 3c-.55614 0-1 .44763-1 .99981V13Zm7.01805-1h1v4h-1v-4Zm-2 0h1v4h-1v-4Zm-2 0h1v4h-1v-4Z" clip-rule="evenodd"/><path fill="#000" fill-opacity=".8" d="m7.83555 13-.83673.5476 1.83673 2.8064V13h-1Zm-.88661-1.3547.83672-.5476-.83672.5476Zm-2.91281-.1732-.93275.3606.93275-.3606Zm1.22727 3.1753.93275-.3605-.93275.3605Zm1.10321 1.5729-.65573.755.00896.0078.00915.0076.63762-.7704ZM8.83555 20h-1v1h1v-1Zm3.99995 0v1h.6181l.2764-.5528L12.8355 20Zm1-2 .8945-.4472-.8945-1.7889-.8944 1.7889.8944.4472Zm1 2-.8944.4472.2764.5528h.618v-1Zm1 0v1h1v-1h-1Zm1.5089-4.1493.8479.5301.0064-.0102.0062-.0104-.8605-.5095Zm.5092-5.8789h1v-.01012l-.0002-.01012-.9998.02024Zm-7.6971-1.80381-.99807.06199.00794.12781.03989.12169.95024-.31149Zm-.25877-4.16678-.99808.06199.99808-.06199Zm-2.06218-.0014h-1 1ZM15.8536 12h1v-1h-1v1Zm0 4v1h1v-1h-1Zm-1 0h-1v1h1v-1Zm-1-4h1v-1h-1v1Zm0 4v1h1v-1h-1Zm-1 0h-1v1h1v-1Zm-1-4h1v-1h-1v1Zm0 4v1h1v-1h-1Zm-1 0h-.99996v1h.99996v-1Zm-2.18133-3.5476-.88661-1.3547-1.67345 1.0953.88661 1.3546 1.67345-1.0952Zm-.88661-1.3547c-.88759-1.35617-2.73674-1.8366-4.1752-1.0971l.91443 1.7787c.53426-.2746 1.26414-.0801 1.58732.4137l1.67345-1.0953Zm-3.26077.6816.22983-.1181-.91443-1.77875-.22983.11815.91443 1.7787Zm-.6846-1.89685c-.70922.36465-1.01808 1.22275-.73691 1.95025l1.8655-.7211c.04558.1179.03564.228.00514.3097-.03042.0814-.09755.1773-.2193.2399l-.91443-1.77875Zm-.73691 1.95025 1.22727 3.1752 1.8655-.721-1.22727-3.1753-1.8655.7211Zm1.22727 3.1752c.25271.6539.84402 1.5017 1.38023 1.9674l1.31147-1.51c-.2873-.2495-.68979-.8255-.8262-1.1784l-1.8655.721Zm2.03596 1.2124c-.63762.7704-.63768.7703-.63773.7703 0 0-.00004-.0001-.00005-.0001-.00002 0 0 0 .00005.0001.00012.0001.00037.0003.00078.0006.0008.0007.00219.0018.00414.0035.00389.0032.01001.0083.01823.0152.01643.0138.04119.0346.07308.0617.06383.0543.15596.1334.26689.2309.22288.196.51689.4623.80811.7485.29565.2906.56755.5814.7586.8285.09601.1242.15432.2153.18445.2729.04054.0776-.00761.0217-.00761-.1224h2c0-.3356-.1253-.623-.21978-.8038-.1049-.2007-.23947-.395-.37492-.5701-.27188-.3516-.61721-.7154-.9388-1.0314-.32601-.3205-.64923-.6129-.88928-.824-.12054-.106-.2213-.1926-.29248-.2531-.03562-.0302-.0639-.0541-.08364-.0706-.00987-.0083-.0176-.0147-.02306-.0193-.00272-.0022-.00488-.004-.00645-.0053-.00078-.0007-.00141-.0012-.0019-.0016-.00024-.0002-.00045-.0004-.00062-.0005-.00008-.0001-.00018-.0002-.00022-.0002-.00009-.0001-.00017-.0001-.63779.7702ZM7.83555 19.03V20h2v-.97h-2Zm1 1.97h3.99995v-2H8.83555v2Zm4.89445-.5528 1-2-1.7889-.8944-1 2 1.7889.8944Zm-.7889-2 1 2 1.7889-.8944-1-2-1.7889.8944ZM14.8355 21h1v-2h-1v2Zm2-1v-.97h-2V20h2Zm0-.97c0 .0358.011-.0861.1566-.43.124-.2927.2961-.6351.4779-.9721.1802-.3338.3615-.647.4985-.8776.0682-.1149.1249-.2085.1642-.2728.0197-.0322.035-.0569.0451-.0734.0051-.0082.0089-.0144.0114-.0183.0012-.0019.0021-.0033.0026-.0042.0003-.0004.0004-.0007.0005-.0008l.0001-.0001h-.0001c0 .0001 0 .0001-.8479-.53-.8479-.5302-.848-.5301-.848-.53 0 0-.0001.0001-.0001.0002-.0001.0001-.0002.0003-.0004.0005-.0003.0005-.0006.0011-.0011.0018-.0009.0015-.0022.0036-.0039.0062-.0032.0053-.0079.0128-.0139.0224-.0119.0193-.029.0471-.0506.0824-.0432.0707-.1044.1717-.1776.2949-.1459.2458-.3418.5838-.5389.9491-.1954.362-.4005.7666-.5594 1.1418-.1373.3241-.315.7911-.315 1.21h2Zm1.3694-2.6698c.1978-.3341.3544-.7471.4619-1.1344.1073-.3868.1868-.8249.1868-1.2192h-2c0 .1544-.0361.4037-.114.6846-.0778.2802-.1757.5149-.2557.65l1.721 1.019Zm.6487-2.3536V9.9718h-2v4.0348h2Zm-.0002-4.05504c-.0297-1.46975-1.2655-2.59702-2.7141-2.59702v2c.4253 0 .7081.32065.7145.63751l1.9996-.04049Zm-2.7141-2.59702c-.9756 0-1.8484.76527-1.8484 1.80887h2c0 .0683-.0307.12236-.0616.15175-.0299.02857-.064.03938-.09.03938v-2Zm-1.8484 1.80887v.32316h2v-.32316h-2Zm2 .32316c0-1.49-1.2526-2.61726-2.6963-2.61726v2c.4301 0 .6963.32067.6963.61726h2Zm-2.6963-2.61726c-.9755 0-1.8484.76527-1.8484 1.80888h2c0 .06829-.0307.12235-.0615.15174-.03.02857-.0641.03938-.0901.03938v-2Zm-1.8484 1.80888v.32316h2v-.32316h-2Zm2 .32316c0-1.49001-1.2526-2.61727-2.6963-2.61727v2c.4302 0 .6963.32067.6963.61727h2Zm-2.6963-2.61727c-.9755 0-1.8484.76528-1.8484 1.80888h2c0 .0683-.0307.12236-.0615.15174-.03.02858-.0641.03938-.0901.03938v-2ZM9.2015 8.19296v.32316h2v-.32316h-2Zm2 .32316c0-.20732-.0212-.43524-.0947-.65961l-1.90054.62297c-.00785-.02395-.00867-.03512-.00773-.02792.00094.00718.00297.02754.00297.06456h2Zm-.0469-.41011-.2588-4.16678-1.99615.12397.25878 4.16678 1.99617-.12397Zm-.2588-4.16678C10.8279 2.84504 9.91249 2 8.83555 2v2c.00881 0 .02469.00346.04165.01933.01607.01505.02162.03043.02245.04387l1.99615-.12397ZM8.83555 2c-1.11075 0-2 .89768-2 1.99981h2V4 2Zm-2 1.99981V8h2V3.99981h-2Zm0 4.00019v5h2V8h-2Zm8.01805 5h1v-2h-1v2Zm0-1v4h2v-4h-2Zm1 3h-1v2h1v-2Zm0 1v-4h-2v4h2Zm-3-3h1v-2h-1v2Zm0-1v4h2v-4h-2Zm1 3h-1v2h1v-2Zm0 1v-4h-2v4h2Zm-3-3h1v-2h-1v2Zm0-1v4h2v-4h-2Zm1 3h-1v2h1v-2Zm0 1v-4H9.85364v4h1.99996Z" mask="url(#b)"/></g><defs><filter id="a" width="21.8535" height="25" x="0" y="0" color-interpolation-filters="sRGB" filterUnits="userSpaceOnUse"><feFlood flood-opacity="0" result="BackgroundImageFix"/><feColorMatrix in="SourceAlpha" result="hardAlpha" values="0 0 0 0 0 0 0 0 0 0 0 0 0 0 0 0 0 0 127 0"/><feOffset dy="1"/><feGaussianBlur stdDeviation="1.5"/><feColorMatrix values="0 0 0 0 0 0 0 0 0 0 0 0 0 0 0 0 0 0 0.2 0"/><feBlend in2="BackgroundImageFix" result="effect1_dropShadow_62863_1118"/><feBlend in="SourceGraphic" in2="effect1_dropShadow_62863_1118" result="shape"/></filter></defs></svg>